<svg id="visual" viewBox="0 0 900 600" width="900" height="600" xmlns="http://www.w3.org/2000/svg" xmlns:xlink="http://www.w3.org/1999/xlink" version="1.1"><rect x="0" y="0" width="900" height="600" fill="#001220"></rect><path d="M0 444L21.5 440.5C43 437 86 430 128.8 426C171.7 422 214.3 421 257.2 424.5C300 428 343 436 385.8 430.5C428.7 425 471.3 406 514.2 393.3C557 380.7 600 374.3 642.8 374.8C685.7 375.3 728.3 382.7 771.2 379.8C814 377 857 364 878.5 357.5L900 351L900 601L878.5 601C857 601 814 601 771.2 601C728.3 601 685.7 601 642.8 601C600 601 557 601 514.2 601C471.3 601 428.7 601 385.8 601C343 601 300 601 257.2 601C214.3 601 171.7 601 128.8 601C86 601 43 601 21.5 601L0 601Z" fill="#fa7268"></path><path d="M0 456L21.5 451C43 446 86 436 128.8 438.2C171.7 440.3 214.3 454.7 257.2 458.8C300 463 343 457 385.8 448.5C428.7 440 471.3 429 514.2 430.7C557 432.3 600 446.7 642.8 444.2C685.7 441.7 728.3 422.3 771.2 424.3C814 426.3 857 449.7 878.5 461.3L900 473L900 601L878.5 601C857 601 814 601 771.2 601C728.3 601 685.7 601 642.8 601C600 601 557 601 514.2 601C471.3 601 428.7 601 385.8 601C343 601 300 601 257.2 601C214.3 601 171.7 601 128.8 601C86 601 43 601 21.5 601L0 601Z" fill="#ef5f67"></path><path d="M0 493L21.5 489.7C43 486.3 86 479.7 128.8 481.3C171.7 483 214.3 493 257.2 489.5C300 486 343 469 385.8 459.7C428.7 450.3 471.3 448.7 514.2 446.8C557 445 600 443 642.8 444.5C685.7 446 728.3 451 771.2 451.7C814 452.3 857 448.7 878.5 446.8L900 445L900 601L878.5 601C857 601 814 601 771.2 601C728.3 601 685.7 601 642.8 601C600 601 557 601 514.2 601C471.3 601 428.7 601 385.8 601C343 601 300 601 257.2 601C214.3 601 171.7 601 128.8 601C86 601 43 601 21.5 601L0 601Z" fill="#e34c67"></path><path d="M0 527L21.5 528.2C43 529.3 86 531.7 128.8 526.3C171.7 521 214.3 508 257.2 505.8C300 503.7 343 512.3 385.8 519C428.7 525.7 471.3 530.3 514.2 525.7C557 521 600 507 642.8 505.7C685.7 504.3 728.3 515.7 771.2 515.5C814 515.3 857 503.7 878.5 497.8L900 492L900 601L878.5 601C857 601 814 601 771.2 601C728.3 601 685.7 601 642.8 601C600 601 557 601 514.2 601C471.3 601 428.7 601 385.8 601C343 601 300 601 257.2 601C214.3 601 171.7 601 128.8 601C86 601 43 601 21.5 601L0 601Z" fill="#d53867"></path><path d="M0 547L21.5 543.8C43 540.7 86 534.3 128.8 537.8C171.7 541.3 214.3 554.7 257.2 554.8C300 555 343 542 385.8 535C428.7 528 471.3 527 514.2 527C557 527 600 528 642.8 534C685.7 540 728.3 551 771.2 553.7C814 556.3 857 550.7 878.5 547.8L900 545L900 601L878.5 601C857 601 814 601 771.2 601C728.3 601 685.7 601 642.8 601C600 601 557 601 514.2 601C471.3 601 428.7 601 385.8 601C343 601 300 601 257.2 601C214.3 601 171.7 601 128.8 601C86 601 43 601 21.5 601L0 601Z" fill="#c62368"></path></svg>