<?xml version="1.0" encoding="UTF-8"?>
<svg width="1499px" height="600px" viewBox="0 0 1499 600" version="1.1" xmlns="http://www.w3.org/2000/svg" xmlns:xlink="http://www.w3.org/1999/xlink">
    <title>layered-waves-haikei (2)</title>
    <g id="layered-waves-haikei-(2)" stroke="none" fill="none" fill-rule="evenodd" stroke-width="1">
        <g id="visual" transform="translate(0, 374)">
            <path d="M0,67.2043285 L35.8094444,55.51927 C71.6188889,43.9340838 143.237778,20.5639669 214.523556,15.0709906 C285.975889,9.57801444 356.928556,21.962179 428.380889,33.5473652 C499.666667,45.2324236 571.285556,56.2183761 642.571333,47.4296141 C714.023667,38.5409799 784.976333,9.97750362 856.428667,2.28733693 C927.714444,-5.40282976 999.333333,7.98005773 1070.61911,17.567798 C1142.07144,27.2554106 1213.02411,33.2477483 1284.47644,34.4462158 C1355.76222,35.5448111 1427.38111,31.9494085 1463.19056,30.0518349 L1499,28.2541335 L1499,227 L1463.19056,227 C1427.38111,227 1355.76222,227 1284.47644,227 C1213.02411,227 1142.07144,227 1070.61911,227 C999.333333,227 927.714444,227 856.428667,227 C784.976333,227 714.023667,227 642.571333,227 C571.285556,227 499.666667,227 428.380889,227 C356.928556,227 285.975889,227 214.523556,227 C143.237778,227 71.6188889,227 35.8094444,227 L0,227 L0,67.2043285 Z" id="Path" fill="#4FACF7" fill-rule="nonzero"></path>
            <path d="M0,85.1813415 L35.8094444,79.1890038 C71.6188889,73.1966662 143.237778,61.2119908 214.523556,54.4206748 C285.975889,47.5294864 356.928556,45.9315297 428.380889,54.0211856 C499.666667,62.2107137 571.285556,80.1877268 642.571333,82.6845342 C714.023667,85.1813415 784.976333,72.1979432 856.428667,68.0033068 C927.714444,63.9085428 999.333333,68.5026683 1070.61911,64.9072657 C1142.07144,61.2119908 1213.02411,49.2273154 1284.47644,45.2324236 C1355.76222,41.2375319 1427.38111,45.2324236 1463.19056,47.2298695 L1499,49.2273154 L1499,227 L1463.19056,227 C1427.38111,227 1355.76222,227 1284.47644,227 C1213.02411,227 1142.07144,227 1070.61911,227 C999.333333,227 927.714444,227 856.428667,227 C784.976333,227 714.023667,227 642.571333,227 C571.285556,227 499.666667,227 428.380889,227 C356.928556,227 285.975889,227 214.523556,227 C143.237778,227 71.6188889,227 35.8094444,227 L0,227 L0,85.1813415 Z" id="Path" fill="#2B9DFC" fill-rule="nonzero"></path>
            <path d="M0,76.192835 L35.8094444,76.192835 C71.6188889,76.192835 143.237778,76.192835 214.523556,77.3913025 C285.975889,78.4898978 356.928556,80.8868329 428.380889,89.1762333 C499.666667,97.4656338 571.285556,111.847244 642.571333,118.438816 C714.023667,125.130259 784.976333,124.131536 856.428667,124.630898 C927.714444,125.130259 999.333333,127.127705 1070.61911,122.134091 C1142.07144,117.140476 1213.02411,105.1558 1284.47644,100.461803 C1355.76222,95.8676771 1427.38111,98.4643567 1463.19056,99.8625688 L1499,101.160909 L1499,227 L1463.19056,227 C1427.38111,227 1355.76222,227 1284.47644,227 C1213.02411,227 1142.07144,227 1070.61911,227 C999.333333,227 927.714444,227 856.428667,227 C784.976333,227 714.023667,227 642.571333,227 C571.285556,227 499.666667,227 428.380889,227 C356.928556,227 285.975889,227 214.523556,227 C143.237778,227 71.6188889,227 35.8094444,227 L0,227 L0,76.192835 Z" id="Path" fill="#008CFF" fill-rule="nonzero"></path>
            <path d="M0,166.0779 L35.8094444,159.885818 C71.6188889,153.793608 143.237778,141.409443 214.523556,134.318511 C285.975889,127.127705 356.928556,125.130259 428.380889,128.825534 C499.666667,132.420937 571.285556,141.808933 642.571333,148.300632 C714.023667,154.792331 784.976333,158.387734 856.428667,151.796162 C927.714444,145.104718 999.333333,128.126428 1070.61911,120.336389 C1142.07144,112.446478 1213.02411,113.84469 1284.47644,117.939454 C1355.76222,122.134091 1427.38111,129.125151 1463.19056,132.620682 L1499,136.116212 L1499,227 L1463.19056,227 C1427.38111,227 1355.76222,227 1284.47644,227 C1213.02411,227 1142.07144,227 1070.61911,227 C999.333333,227 927.714444,227 856.428667,227 C784.976333,227 714.023667,227 642.571333,227 C571.285556,227 499.666667,227 428.380889,227 C356.928556,227 285.975889,227 214.523556,227 C143.237778,227 71.6188889,227 35.8094444,227 L0,227 L0,166.0779 Z" id="Path" fill="#007AFF" fill-rule="nonzero"></path>
            <path d="M0,180.060021 L35.8094444,176.364747 C71.6188889,172.769344 143.237778,165.378794 214.523556,168.275091 C285.975889,171.071515 356.928556,184.054913 428.380889,190.246996 C499.666667,196.339206 571.285556,195.739972 642.571333,195.340483 C714.023667,195.040866 784.976333,195.040866 856.428667,195.739972 C927.714444,196.339206 999.333333,197.737418 1070.61911,190.846229 C1142.07144,184.054913 1213.02411,169.074069 1284.47644,163.780837 C1355.76222,158.387734 1427.38111,162.782115 1463.19056,164.879433 L1499,167.076623 L1499,227 L1463.19056,227 C1427.38111,227 1355.76222,227 1284.47644,227 C1213.02411,227 1142.07144,227 1070.61911,227 C999.333333,227 927.714444,227 856.428667,227 C784.976333,227 714.023667,227 642.571333,227 C571.285556,227 499.666667,227 428.380889,227 C356.928556,227 285.975889,227 214.523556,227 C143.237778,227 71.6188889,227 35.8094444,227 L0,227 L0,180.060021 Z" id="Path" fill="#0066FF" fill-rule="nonzero"></path>
        </g>
    </g>
</svg>