<?xml version="1.0" encoding="UTF-8"?>
<svg width="1751px" height="600px" viewBox="0 0 1751 600" version="1.1" xmlns="http://www.w3.org/2000/svg" xmlns:xlink="http://www.w3.org/1999/xlink">
    <title>layered-waves-haikei (2)</title>
    <g id="layered-waves-haikei-(2)" stroke="none" fill="none" fill-rule="evenodd" stroke-width="1">
        <g id="visual" transform="translate(0, 374)">
            <path d="M0,67.2043285 L41.8294444,55.51927 C83.6588889,43.9340838 167.317778,20.5639669 250.587556,15.0709906 C334.051889,9.57801444 416.932556,21.962179 500.396889,33.5473652 C583.666667,45.2324236 667.325556,56.2183761 750.595333,47.4296141 C834.059667,38.5409799 916.940333,9.97750362 1000.40467,2.28733693 C1083.67444,-5.40282976 1167.33333,7.98005773 1250.60311,17.567798 C1334.06744,27.2554106 1416.94811,33.2477483 1500.41244,34.4462158 C1583.68222,35.5448111 1667.34111,31.9494085 1709.17056,30.0518349 L1751,28.2541335 L1751,227 L1709.17056,227 C1667.34111,227 1583.68222,227 1500.41244,227 C1416.94811,227 1334.06744,227 1250.60311,227 C1167.33333,227 1083.67444,227 1000.40467,227 C916.940333,227 834.059667,227 750.595333,227 C667.325556,227 583.666667,227 500.396889,227 C416.932556,227 334.051889,227 250.587556,227 C167.317778,227 83.6588889,227 41.8294444,227 L0,227 L0,67.2043285 Z" id="Path" fill="#4FACF7" fill-rule="nonzero"></path>
            <path d="M0,85.1813415 L41.8294444,79.1890038 C83.6588889,73.1966662 167.317778,61.2119908 250.587556,54.4206748 C334.051889,47.5294864 416.932556,45.9315297 500.396889,54.0211856 C583.666667,62.2107137 667.325556,80.1877268 750.595333,82.6845342 C834.059667,85.1813415 916.940333,72.1979432 1000.40467,68.0033068 C1083.67444,63.9085428 1167.33333,68.5026683 1250.60311,64.9072657 C1334.06744,61.2119908 1416.94811,49.2273154 1500.41244,45.2324236 C1583.68222,41.2375319 1667.34111,45.2324236 1709.17056,47.2298695 L1751,49.2273154 L1751,227 L1709.17056,227 C1667.34111,227 1583.68222,227 1500.41244,227 C1416.94811,227 1334.06744,227 1250.60311,227 C1167.33333,227 1083.67444,227 1000.40467,227 C916.940333,227 834.059667,227 750.595333,227 C667.325556,227 583.666667,227 500.396889,227 C416.932556,227 334.051889,227 250.587556,227 C167.317778,227 83.6588889,227 41.8294444,227 L0,227 L0,85.1813415 Z" id="Path" fill="#2B9DFC" fill-rule="nonzero"></path>
            <path d="M0,76.192835 L41.8294444,76.192835 C83.6588889,76.192835 167.317778,76.192835 250.587556,77.3913025 C334.051889,78.4898978 416.932556,80.8868329 500.396889,89.1762333 C583.666667,97.4656338 667.325556,111.847244 750.595333,118.438816 C834.059667,125.130259 916.940333,124.131536 1000.40467,124.630898 C1083.67444,125.130259 1167.33333,127.127705 1250.60311,122.134091 C1334.06744,117.140476 1416.94811,105.1558 1500.41244,100.461803 C1583.68222,95.8676771 1667.34111,98.4643567 1709.17056,99.8625688 L1751,101.160909 L1751,227 L1709.17056,227 C1667.34111,227 1583.68222,227 1500.41244,227 C1416.94811,227 1334.06744,227 1250.60311,227 C1167.33333,227 1083.67444,227 1000.40467,227 C916.940333,227 834.059667,227 750.595333,227 C667.325556,227 583.666667,227 500.396889,227 C416.932556,227 334.051889,227 250.587556,227 C167.317778,227 83.6588889,227 41.8294444,227 L0,227 L0,76.192835 Z" id="Path" fill="#008CFF" fill-rule="nonzero"></path>
            <path d="M0,166.0779 L41.8294444,159.885818 C83.6588889,153.793608 167.317778,141.409443 250.587556,134.318511 C334.051889,127.127705 416.932556,125.130259 500.396889,128.825534 C583.666667,132.420937 667.325556,141.808933 750.595333,148.300632 C834.059667,154.792331 916.940333,158.387734 1000.40467,151.796162 C1083.67444,145.104718 1167.33333,128.126428 1250.60311,120.336389 C1334.06744,112.446478 1416.94811,113.84469 1500.41244,117.939454 C1583.68222,122.134091 1667.34111,129.125151 1709.17056,132.620682 L1751,136.116212 L1751,227 L1709.17056,227 C1667.34111,227 1583.68222,227 1500.41244,227 C1416.94811,227 1334.06744,227 1250.60311,227 C1167.33333,227 1083.67444,227 1000.40467,227 C916.940333,227 834.059667,227 750.595333,227 C667.325556,227 583.666667,227 500.396889,227 C416.932556,227 334.051889,227 250.587556,227 C167.317778,227 83.6588889,227 41.8294444,227 L0,227 L0,166.0779 Z" id="Path" fill="#007AFF" fill-rule="nonzero"></path>
            <path d="M0,180.060021 L41.8294444,176.364747 C83.6588889,172.769344 167.317778,165.378794 250.587556,168.275091 C334.051889,171.071515 416.932556,184.054913 500.396889,190.246996 C583.666667,196.339206 667.325556,195.739972 750.595333,195.340483 C834.059667,195.040866 916.940333,195.040866 1000.40467,195.739972 C1083.67444,196.339206 1167.33333,197.737418 1250.60311,190.846229 C1334.06744,184.054913 1416.94811,169.074069 1500.41244,163.780837 C1583.68222,158.387734 1667.34111,162.782115 1709.17056,164.879433 L1751,167.076623 L1751,227 L1709.17056,227 C1667.34111,227 1583.68222,227 1500.41244,227 C1416.94811,227 1334.06744,227 1250.60311,227 C1167.33333,227 1083.67444,227 1000.40467,227 C916.940333,227 834.059667,227 750.595333,227 C667.325556,227 583.666667,227 500.396889,227 C416.932556,227 334.051889,227 250.587556,227 C167.317778,227 83.6588889,227 41.8294444,227 L0,227 L0,180.060021 Z" id="Path" fill="#0066FF" fill-rule="nonzero"></path>
        </g>
    </g>
</svg>