<?xml version="1.0" encoding="UTF-8"?>
<svg width="1692px" height="600px" viewBox="0 0 1692 600" version="1.1" xmlns="http://www.w3.org/2000/svg" xmlns:xlink="http://www.w3.org/1999/xlink">
    <title>layered-waves-haikei (4)</title>
    <g id="layered-waves-haikei-(4)" stroke="none" fill="none" fill-rule="evenodd" stroke-width="1">
        <g id="visual" transform="translate(0, 368)">
            <path d="M0,68.6613914 L40.42,58.3401251 C80.84,47.9186523 161.68,27.2761198 242.144,17.7565053 C322.796,8.23689074 402.884,9.84019424 483.536,15.8525824 C564,21.8649705 644.84,32.2864432 725.304,33.2885079 C805.956,34.2905726 886.044,25.8732292 966.696,17.2554729 C1047.16,8.53751014 1128,-0.481072039 1208.464,0.0199603046 C1289.116,0.520992648 1369.204,10.5416395 1449.856,22.2657964 C1530.32,33.8897467 1611.16,47.3174135 1651.58,53.9310405 L1692,60.6448739 L1692,233 L1651.58,233 C1611.16,233 1530.32,233 1449.856,233 C1369.204,233 1289.116,233 1208.464,233 C1128,233 1047.16,233 966.696,233 C886.044,233 805.956,233 725.304,233 C644.84,233 564,233 483.536,233 C402.884,233 322.796,233 242.144,233 C161.68,233 80.84,233 40.42,233 L0,233 L0,68.6613914 Z" id="Path" fill="#7D6CEF" fill-rule="nonzero"></path>
            <path d="M0,35.5932567 L40.42,35.2926373 C80.84,34.8918114 161.68,34.2905726 242.144,42.6077095 C322.796,50.9248464 402.884,68.3607719 483.536,66.8576749 C564,65.3545779 644.84,44.9124583 725.304,35.5932567 C805.956,26.2740551 886.044,27.8773586 966.696,32.3866497 C1047.16,36.8959408 1128,44.3112195 1208.464,48.6200976 C1289.116,52.9289758 1369.204,54.3318663 1449.856,64.3525132 C1530.32,74.3731601 1611.16,93.0115632 1651.58,102.430971 L1692,111.750173 L1692,233 L1651.58,233 C1611.16,233 1530.32,233 1449.856,233 C1369.204,233 1289.116,233 1208.464,233 C1128,233 1047.16,233 966.696,233 C886.044,233 805.956,233 725.304,233 C644.84,233 564,233 483.536,233 C402.884,233 322.796,233 242.144,233 C161.68,233 80.84,233 40.42,233 L0,233 L0,35.5932567 Z" id="Path" fill="#755CF5" fill-rule="nonzero"></path>
            <path d="M0,137.803855 L40.42,136.601377 C80.84,135.499106 161.68,133.094151 242.144,121.971233 C322.796,110.748108 402.884,90.7068145 483.536,80.8865805 C564,70.9661401 644.84,71.366966 725.304,76.6779088 C805.956,81.9888517 886.044,92.4103244 966.696,98.0218867 C1047.16,103.733655 1128,104.73572 1208.464,105.437165 C1289.116,106.038404 1369.204,106.43923 1449.856,109.445424 C1530.32,112.451618 1611.16,118.06318 1651.58,120.969168 L1692,123.774949 L1692,233 L1651.58,233 C1611.16,233 1530.32,233 1449.856,233 C1369.204,233 1289.116,233 1208.464,233 C1128,233 1047.16,233 966.696,233 C886.044,233 805.956,233 725.304,233 C644.84,233 564,233 483.536,233 C402.884,233 322.796,233 242.144,233 C161.68,233 80.84,233 40.42,233 L0,233 L0,137.803855 Z" id="Path" fill="#6E49F9" fill-rule="nonzero"></path>
            <path d="M0,148.826566 L40.42,146.521818 C80.84,144.116862 161.68,139.507365 242.144,136.601377 C322.796,133.795596 402.884,132.793531 483.536,133.294564 C564,133.795596 644.84,135.799725 725.304,140.509429 C805.956,145.118927 886.044,152.534206 966.696,157.344116 C1047.16,162.154027 1128,164.558982 1208.464,160.35031 C1289.116,156.141639 1369.204,145.519753 1449.856,137.102409 C1530.32,128.785273 1611.16,122.772884 1651.58,119.76669 L1692,116.760496 L1692,233 L1651.58,233 C1611.16,233 1530.32,233 1449.856,233 C1369.204,233 1289.116,233 1208.464,233 C1128,233 1047.16,233 966.696,233 C886.044,233 805.956,233 725.304,233 C644.84,233 564,233 483.536,233 C402.884,233 322.796,233 242.144,233 C161.68,233 80.84,233 40.42,233 L0,233 L0,148.826566 Z" id="Path" fill="#6932FD" fill-rule="nonzero"></path>
            <path d="M0,167.865795 L40.42,172.675706 C80.84,177.585823 161.68,187.205644 242.144,192.917413 C322.796,198.629181 402.884,200.232485 483.536,193.418445 C564,186.604405 644.84,171.172609 725.304,165.060014 C805.956,158.847213 886.044,161.853407 966.696,167.665382 C1047.16,173.577564 1128,182.19532 1208.464,188.107502 C1289.116,193.919477 1369.204,196.925671 1449.856,195.622987 C1530.32,194.220097 1611.16,188.608534 1651.58,185.702547 L1692,182.896766 L1692,233 L1651.58,233 C1611.16,233 1530.32,233 1449.856,233 C1369.204,233 1289.116,233 1208.464,233 C1128,233 1047.16,233 966.696,233 C886.044,233 805.956,233 725.304,233 C644.84,233 564,233 483.536,233 C402.884,233 322.796,233 242.144,233 C161.68,233 80.84,233 40.42,233 L0,233 L0,167.865795 Z" id="Path" fill="#6600FF" fill-rule="nonzero"></path>
        </g>
    </g>
</svg>